M48
;FILE_FORMAT=2:4
INCH,TZ
;TYPE=PLATED
T01C0.012
T02C0.038
T03C0.056
T04C0.120
%
T01
X+44250Y+71500
X+47750Y+57500
X+45250Y+62000
Y+68000
X+47000Y+71500
X+46500
X+46000
X+46250Y+70250
X+46750
X+47250
X+47750
X+48650Y+49750
X+49250Y+53500
X+49750
X+50250
X+50750
X+48400Y+51750
X+49250Y+56000
Y+55500
X+49750
Y+56000
X+50250Y+55500
X+50750
X+49250Y+58000
X+49750
Y+58500
X+49250
Y+57500
X+49750
X+50250
Y+58000
Y+58500
X+48750
Y+58000
Y+57500
X+48250
X+50250Y+59000
X+48600Y+60300
X+50500Y+60650
X+48500Y+65750
X+49000
X+49500
X+50500
X+49500Y+65250
X+50000
Y+65750
X+50500Y+65250
X+48500Y+64000
X+49000Y+66750
Y+66250
X+49500Y+66750
X+48500
Y+66250
X+49500
X+49650Y+67750
X+48250Y+70250
X+51200Y+54200
X+52450Y+57300
Y+59000
X+52750Y+59150
X+52950Y+59400
X+52750Y+65400
X+53750
X+52100Y+66750
X+53250Y+68150
X+52900
X+52150Y+67450
X+51250Y+71500
X+55650Y+53000
X+55750Y+59050
X+55600Y+58750
X+54350Y+65050
X+56750Y+65400
X+55750
X+56250Y+71500
X+54500Y+69500
X+57650Y+53000
X+59650
X+57400Y+52700
X+59400
X+59000Y+57750
X+58600Y+59750
X+59200Y+61000
X+57750Y+65400
X+58450Y+67000
X+59750Y+68200
X+61350Y+53000
X+61750Y+53650
X+61000Y+71500
Y+69500
X+64500Y+49500
X+65650Y+52950
Y+54650
X+63900Y+56650
X+65000Y+56250
X+65500Y+58750
X+65000Y+59500
X+65050Y+58200
X+65500Y+61450
X+65000Y+60650
X+65250Y+60400
X+64700Y+61150
X+64450Y+61400
X+63900Y+60250
X+65000Y+62100
X+63550Y+60350
X+64350Y+64950
X+65250Y+68050
X+65750Y+67550
X+65500Y+70150
X+65100Y+70000
X+65500Y+70500
X+68000Y+52500
X+68500
Y+52000
X+68000
Y+51500
X+68500
X+66500Y+51950
X+68000Y+58500
X+68500
Y+58000
X+68000
Y+57500
X+68500
X+66500Y+57950
X+68000Y+62500
X+68500
Y+60500
X+67150Y+60300
X+68000Y+63500
X+68500
X+68000Y+68500
X+68500
X+68000Y+69500
X+68500
X+66500Y+71500
X+69500Y+52850
Y+53100
X+71150Y+51350
Y+52900
Y+53150
Y+52650
Y+57350
Y+58900
Y+59150
Y+58650
X+69500Y+58850
Y+59100
Y+62150
Y+61900
X+71150Y+62100
Y+62350
Y+61850
X+69500Y+63850
Y+64100
X+71150Y+63900
Y+64150
Y+63650
Y+68100
X+69500Y+68150
Y+67900
X+71150Y+68350
Y+67850
X+69500Y+69850
Y+70100
X+71150Y+69900
Y+69650
Y+70150
X+72500Y+49500
Y+60500
Y+71500
X+47750Y+57000
X+45250Y+60000
X+49250Y+54000
X+49750
X+50250Y+57000
X+49750
X+49250
X+48750
X+48250
X+50750
X+48500Y+63000
X+51200Y+53950
X+56550Y+62850
Y+63100
X+68500Y+69000
X+68000
X+68500Y+63000
X+68000
X+66500Y+68900
Y+63050
X+69500Y+57150
Y+56900
Y+51150
Y+50900
X+71150Y+57100
Y+56850
Y+51100
Y+50850
X+48000Y+66750
X+57000Y+49500
X+59950Y+58500
X+56950Y+70400
X+69000Y+52500
Y+52000
Y+51500
Y+58500
Y+58000
Y+57500
X+62950Y+57750
X+65850Y+59400
X+69000Y+62500
Y+63500
Y+68500
X+63000Y+68400
X+69000Y+69500
X+65850Y+69800
X+66000Y+53950
X+69000Y+69000
Y+63000
T02
X+52250Y+54250
Y+55250
X+56000Y+55750
Y+54750
Y+56750
X+58500Y+55750
Y+54750
Y+56750
X+61000Y+60000
Y+59000
Y+55750
Y+54750
Y+56750
X+49000Y+65000
Y+61000
X+52750Y+62000
Y+63000
Y+61000
X+55250Y+62000
Y+63000
Y+61000
X+57750Y+62000
Y+63000
Y+61000
X+63500Y+55500
X+64500
X+62500
X+47750Y+66250
Y+68250
X+56500Y+51000
X+55500
X+53500
X+52500
X+57500
X+54500
X+54250Y+54250
Y+55250
Y+57250
Y+58250
X+60000Y+63750
Y+62750
Y+64750
X+58000Y+66500
X+55000
X+56000
X+57000
X+54000
X+58000Y+67500
X+55000
X+56000
X+57000
X+54000
X+72000Y+56250
Y+57250
Y+59250
Y+58250
Y+50750
Y+51750
Y+53750
Y+52750
X+63500Y+53500
X+64500
X+62500
X+63500Y+54500
X+64500
X+62500
X+63000Y+59000
Y+60000
X+72000Y+67250
Y+68250
Y+70250
Y+69250
Y+61750
Y+62750
Y+64750
Y+63750
X+63750Y+62250
Y+64250
X+52000Y+50150
Y+51900
X+49250Y+50150
Y+51900
X+62500Y+51000
X+63500
X+59500
X+60500
X+61500
X+64500
X+62500Y+52000
X+63500
X+59500
X+60500
X+61500
X+64500
X+57500Y+70000
X+60500
X+59500
X+63500
X+62500
X+58500
X+61500
X+64500
X+57500Y+69000
X+60500
X+59500
X+63500
X+62500
X+58500
X+61500
X+64500
Y+66500
X+61500
X+62500
X+63500
X+60500
X+64500Y+67500
X+61500
X+62500
X+63500
X+60500
X+49000Y+70000
X+52000
X+51000
X+55000
X+54000
X+50000
X+53000
X+56000
X+49000Y+69000
X+52000
X+51000
X+55000
X+54000
X+50000
X+53000
X+56000
T03
X+45250Y+58750
Y+57250
Y+55750
Y+54250
Y+67000
Y+65000
Y+71000
Y+69000
Y+52750
Y+49750
Y+51250
Y+63000
Y+61000
T04
X+68500Y+55000
Y+66000
T00
M30
